<?xml version="1.0" standalone="no"?>
<!DOCTYPE svg PUBLIC "-//W3C//DTD SVG 20010904//EN"
 "http://www.w3.org/TR/2001/REC-SVG-20010904/DTD/svg10.dtd">
<svg version="1.0" xmlns="http://www.w3.org/2000/svg"
 width="317.000000pt" height="327.000000pt" viewBox="0 0 317.000000 327.000000"
 preserveAspectRatio="xMidYMid meet">

<g transform="translate(0.000000,327.000000) scale(0.100000,-0.100000)"
fill="none" stroke="none">
<path fill="#FFFFFF" d="M0 1635 l0 -1635 1585 0 1585 0 0 1635 0 1635 -1585 0 -1585 0 0
-1635z m2276 1349 c30 -18 60 -48 79 -79 27 -43 30 -57 30 -125 l0 -77 185
-106 c102 -59 200 -115 218 -127 l32 -20 0 -389 0 -389 -317 -183 c-175 -101
-329 -185 -343 -187 -20 -3 -99 39 -315 164 -159 92 -297 169 -307 172 -16 4
-238 -119 -513 -283 l-70 -41 -3 -341 -2 -341 57 -35 c126 -76 515 -297 523
-297 6 0 383 213 398 225 2 1 -2 23 -8 48 -18 70 1 144 53 203 51 58 105 83
178 84 99 0 175 -47 215 -135 64 -136 -6 -288 -151 -330 -67 -20 -135 -9 -192
30 -36 24 -37 24 -67 6 -124 -75 -418 -241 -427 -241 -6 0 -101 53 -212 117
-111 64 -258 149 -327 189 l-125 72 -3 374 -3 373 -312 180 -312 180 -3 381
c-2 353 -1 382 15 396 27 24 645 378 660 378 14 0 629 -354 655 -377 16 -14
18 -48 20 -371 l3 -355 282 -164 283 -164 32 17 c18 9 85 47 148 84 63 36 179
104 258 149 l142 83 0 331 0 332 -198 113 c-155 90 -200 111 -212 103 -111
-81 -200 -90 -294 -31 -139 88 -150 276 -24 384 52 45 86 56 164 53 48 -2 72
-9 110 -33z"/>
<path fill="#FFFFFF" d="M2123 2919 c-47 -9 -78 -33 -97 -72 -30 -64 -17 -125 38 -176 37 -35
118 -40 164 -11 44 27 75 97 66 147 -14 76 -95 129 -171 112z"/>
<path fill="#FFFFFF" d="M612 2558 l-282 -163 2 -334 3 -333 285 -165 c239 -138 288 -163 305
-154 11 5 139 79 285 164 l265 153 3 335 2 334 -276 160 c-153 88 -284 161
-293 163 -9 1 -143 -71 -299 -160z"/>
<path fill="#FFFFFF" d="M2115 763 c-87 -24 -132 -134 -85 -211 77 -126 263 -73 263 75 0 88
-93 159 -178 136z"/>
</g>
</svg>
